#!OML:ASF E:/inclinewalkrobotboard/Project1/Captureday1/Session1/subject1.ASF
:FULLY-SPECIFIED
:DEGREES
163
root 0 0 0 15.06267338562522 38.89282207318136 1.1139019067950202
lowerback 13.151743406643376 5.176306232132177 5.850509179022919
upperback -4.128757015578239 7.193337975816139 2.155531866831872
thorax -11.326594563911108 3.3599980192135637 -1.7479390597407138
lowerneck -16.31490163109278 -8.542754947889806 -3.003738528251289
upperneck 25.611882003063993 -13.679844184756837 3.413974244735639
head 11.09274488193226 -6.045603260976656 0.16071869674349504
rclavicle -1.2308094487824646E-14 -7.899110878136143E-16
rhumerus -32.73871185368284 15.852212862125462 -83.46129656527299
rradius 32.437083840628695
rwrist 8.35159595493112
rhand -19.017959736094117 -4.400886670516689
rfingers 7.125019999999963
rthumb 7.367052237414219 -34.407907959808185
lclavicle 8.230591511454502E-16 4.705003922955927E-15
lhumerus -47.998592711147666 19.95542376878104 66.14759355081569
lradius 51.14974582785985
lwrist -12.303981471192639
lhand -14.223044153129532 17.098228275202917
lfingers 7.125019999999911
lthumb 11.935428644675424 46.346134339027536
rfemur -7.255917314165014 20.18749278090332 37.96737177332615
rtibia -1.065314032976655
rfoot 4.088213675952137 -27.36543401323773
rtoes -32.40537537614194
lfemur -40.65323794695333 -19.235614915991146 -20.532608337344396
ltibia 26.86992452377614
lfoot -29.079185987151586 -5.498791510932216
ltoes -43.81351765019663
164
root 0 0 0 15.064580120743756 38.89094043235842 1.1155601733165015
lowerback 13.154299651842418 5.1756436844705656 5.8495761032861635
upperback -4.127803947042045 7.192274229425028 2.1559258104322794
thorax -11.326965196685032 3.359548104509275 -1.7469016059934748
lowerneck -16.316235957403453 -8.543117303083939 -3.0048864093854215
upperneck 25.609447417232506 -13.680194796566466 3.413373675934357
head 11.091983256963092 -6.046083095059821 0.16062870659753226
rclavicle -1.230412727940074E-14 -7.878363915370405E-16
rhumerus -32.73922717936016 15.848055165080776 -83.45980387396858
rradius 32.42318640044386
rwrist 8.357619879397348
rhand -19.01780936594049 -4.403578658469925
rfingers 7.125019999999963
rthumb 7.367213305397265 -34.41057852508581
lclavicle 8.32399402622243E-16 4.7054768210529785E-15
lhumerus -47.9980667213471 19.95691349314638 66.14553792918022
lradius 51.14829038038293
lwrist -12.307093642463215
lhand -14.224014386482956 17.097042002368312
lfingers 7.125019999999911
lthumb 11.934485667074725 46.34495818575311
rfemur -7.272554597349755 20.189226032899334 37.96837017061256
rtibia -1.0526620092066956
rfoot 4.082552742281177 -27.362550460489047
rtoes -32.38745445861282
lfemur -40.658289537014404 -19.232173442156927 -20.53596557868376
ltibia 26.885127830745994
lfoot -29.072271842814942 -5.510397627887636
ltoes -43.807962039861195
165
root 0 0 0 17.066671614522747 25.41621791538565 -1.2977224496845694
lowerback 16.194689316385624 3.2985115276067685 3.7041864242590408
upperback -3.0374299004307344 4.502733964981111 2.5625226546903286
thorax -11.892225700911865 2.1642912493066593 0.1927693293083107
lowerneck -15.1088893091824 -0.6926560665082149 7.226459869599352
upperneck 29.087914962571553 -4.096273261332468 0.9400511600169585
head 12.382697746047032 -0.8462133688266057 -1.3183917251615758
rclavicle -1.4215695433058984E-14 -1.5106325925446E-15
rhumerus -35.61256886699175 19.44997843563263 -83.82574381106843
rradius 45.804790192922574
rwrist 1.5549671882596776
rhand -18.61112306982232 -3.8621758425046995
rfingers 7.125019999999954
rthumb 7.75490640793897 -33.8525088272831
lclavicle 9.223457853895455E-17 3.2984682080419065E-15
lhumerus -48.13758078076953 20.369157387486887 66.15400141493615
lradius 51.22249897261638
lwrist -12.08352604116482
lhand -14.094983008386272 17.139348300151916
lfingers 7.125019999999915
lthumb 12.059278631793614 46.37644032011682
rfemur -8.77527265074351 20.880251225031465 37.69419550103815
rtibia -1.3684802512506486
rfoot 3.7154348167935254 -27.321353823138704
rtoes -35.14238960153134
lfemur -39.55490135128278 -19.20736508810323 -19.792407557488236
ltibia 24.892937232015914
lfoot -31.125717277751555 -3.6700558146814117
ltoes -43.64053866983635
166
root 0 0 0 17.537362785509803 17.81346364576698 -3.2218600455337314
lowerback 17.900067982551757 2.125440347351664 1.979237790584993
upperback -2.3839261824697195 2.743622976115036 2.520201486747692
thorax -12.097708950662613 1.403458821216721 1.3945585833699181
lowerneck -14.427288382912721 4.258103422900174 13.444991890374212
upperneck 31.818562247782744 2.0616528392129707 -0.6898254455262267
head 13.468870535297476 2.4660943566595876 -2.249815322031013
rclavicle -1.107342106609996E-14 1.1627688709167954E-15
rhumerus -34.8273756522714 20.662578382820502 -83.85394642187859
rradius 50.980449796005026
rwrist -0.9305834780588889
rhand -18.684821383925268 -4.147087629191796
rfingers 7.125019999999961
rthumb 7.687031781545255 -34.14699442624887
lclavicle 2.4952218038430503E-15 5.454432465642458E-15
lhumerus -48.031048356759236 19.690618744056017 66.61135327437582
lradius 51.82066838730218
lwrist -11.948104085961017
lhand -14.417939085983846 17.134140846105932
lfingers 7.125019999999912
lthumb 11.737859079416033 46.386077130990955
rfemur -8.020075337366539 20.93796063995331 37.41848548855715
rtibia -2.5839143191301197
rfoot 3.3444273052283613 -27.30681084935813
rtoes -38.600293369412995
lfemur -38.825285268990775 -19.959292611880297 -19.525899212997572
ltibia 22.924474194703244
lfoot -32.26100629002561 -3.075604264570039
ltoes -43.27639415851974
